<svg width="100%" viewBox="0 0 680 400" xmlns="http://www.w3.org/2000/svg" role="img">
<title>Payments dashboard illustration</title>
<desc>A cartoon-style illustration of a laptop displaying a payments dashboard with a bar chart, a line chart, and a small floating notification badge.</desc>
<rect x="150" y="60" width="380" height="230" rx="14" fill="#ffffff" stroke="#e2e5e9" stroke-width="2"/>
<rect x="150" y="60" width="380" height="34" rx="14" fill="#1DA157"/>
<rect x="150" y="76" width="380" height="18" fill="#1DA157"/>
<circle cx="172" cy="77" r="5" fill="#ffffff" opacity="0.85"/>
<circle cx="190" cy="77" r="5" fill="#ffffff" opacity="0.6"/>
<circle cx="208" cy="77" r="5" fill="#ffffff" opacity="0.4"/>
<rect x="172" y="114" width="140" height="18" rx="4" fill="#eef0f2"/>
<rect x="172" y="140" width="90" height="12" rx="3" fill="#F7C948"/>
<g>
<rect x="172" y="180" width="24" height="70" rx="3" fill="#1DA157"/>
<rect x="204" y="200" width="24" height="50" rx="3" fill="#8fd9ac"/>
<rect x="236" y="165" width="24" height="85" rx="3" fill="#1DA157"/>
<rect x="268" y="215" width="24" height="35" rx="3" fill="#8fd9ac"/>
</g>
<g fill="none" stroke="#147A41" stroke-width="2.5" stroke-linecap="round" stroke-linejoin="round">
<polyline points="330,245 355,225 380,235 405,190 430,205 455,175 480,190 505,160"/>
</g>
<circle cx="505" cy="160" r="4.5" fill="#147A41"/>
<path d="M180 330 L150 290 L530 290 L500 330 Z" fill="#dfe2e6"/>
<rect x="235" y="330" width="210" height="14" rx="6" fill="#c7cbd0"/>
<circle cx="522" cy="90" r="26" fill="#F5A623"/>
<text x="522" y="96" text-anchor="middle" font-size="16" font-weight="500" fill="#7a4e0c">+12%</text>
<circle cx="132" cy="240" r="20" fill="#ffffff" stroke="#1DA157" stroke-width="2.5"/>
<path d="M124 240 L130 246 L142 232" fill="none" stroke="#1DA157" stroke-width="2.5" stroke-linecap="round" stroke-linejoin="round"/>
</svg>
